# xmcd
#
# Track frame offsets:
#	150
#	15727
#	37912
#	48547
#	67490
#	81862
#	98090
#	110215
#	131750
#	144665
#	165067
#	186820
#
# Disc length: 2645 seconds
#
# Revision: 0
# Processed by: cddbd v1.5.2PL0 Copyright (c) Steve Scherf et al.
# Submitted via: EasyCDDAExtractor 10.0.6.1
#
DISCID=a60a530c
DTITLE=Various Artist - Goldenvine Productions Phase V
DYEAR=1994
DGENRE=Gospel
TTITLE0=The Freemans - One Out Of Ten
TTITLE1=Chuck Higginbotham - God Is My Refuge
TTITLE2=Spirit Of Harmony - Safely Home
TTITLE3=Mike and Shala White - My Heart Is Fixed
TTITLE4=Peaceful Hearts - Fairytale
TTITLE5=Lou Hunt - Child Keep Pressing On
TTITLE6=The Marshalls - Call On Me
TTITLE7=The Cornetts - The Lord Only Knows
TTITLE8=Pauline Patterson - Home Is On My Mind Today
TTITLE9=The Gosman Family Singers - Grandma's Organ
TTITLE10=Chuck Higginbotham - You've Got To Be Born Again
TTITLE11=empty - empty
EXTD=
EXTT0=
EXTT1=
EXTT2=
EXTT3=
EXTT4=
EXTT5=
EXTT6=
EXTT7=
EXTT8=
EXTT9=
EXTT10=
EXTT11=
PLAYORDER=
